#!OML:ASF F:\VICON\USERDATA\INSTALL\rory3\rory3.ASF
:FULLY-SPECIFIED
:DEGREES
4632
root 14.9495 18.0093 -9.95314 627.534 -86.3976 449.695
lowerback 12.3479 3.25594 1.52728
upperback 1.98797 4.40768 -0.63752
thorax -4.65188 2.11487 -2.22686
lowerneck -21.8256 3.59609 -7.4698
upperneck 35.8374 6.83218 2.51591
head 16.09 1.88605 3.64828
rclavicle -1.04362e-014 2.78299e-015
rhumerus -31.9009 -15.2253 -78.7692
rradius 31.9459
rwrist 5.95769
rhand -15.6998 10.3938
rfingers 7.12502
rthumb 10.4898 -19.3245
lclavicle -1.04362e-014 2.78299e-015
lhumerus -35.5241 18.2103 74.5122
lradius 26.6976
lwrist -7.47352
lhand -20.215 20.9186
lfingers 7.12502
lthumb 6.13222 50.8098
rfemur -3.24999 -3.29486 16.2479
rtibia 29.1004
rfoot -17.9123 -13.8503
rtoes 6.26569
lfemur -8.40767 -4.32715 -14.2411
ltibia 30.8298
lfoot -10.6428 -0.873376
ltoes -13.5791
4633
root 14.9478 18.0185 -9.92329 629.161 -86.3201 448.057
lowerback 12.3492 3.26867 1.52388
upperback 1.97263 4.42316 -0.668672
thorax -4.66574 2.12228 -2.26058
lowerneck -21.7175 3.63567 -7.55321
upperneck 35.8937 6.87514 2.61119
head 16.0789 1.90409 3.70896
rclavicle -2.78795e-014 3.97569e-016
rhumerus -31.959 -15.0345 -78.7877
rradius 32.1403
rwrist 5.61009
rhand -16.1083 10.3692
rfingers 7.12502
rthumb 10.0957 -19.3687
lclavicle -2.78795e-014 3.97569e-016
lhumerus -35.5996 18.3301 74.4371
lradius 26.6052
lwrist -7.56923
lhand -20.4379 21.2196
lfingers 7.12502
lthumb 5.91703 51.117
rfemur -3.07751 -3.15574 16.1016
rtibia 28.8578
rfoot -17.7697 -14.1503
rtoes 5.81747
lfemur -8.19909 -4.56749 -13.8096
ltibia 30.5448
lfoot -10.3381 -1.0456
ltoes -14.7243
4634
root 14.9455 18.0263 -9.89333 627.966 -86.2758 449.311
lowerback 12.2933 3.33364 1.50197
upperback 1.9367 4.50515 -0.712161
thorax -4.66707 2.16321 -2.30413
lowerneck -21.7162 3.66868 -7.488
upperneck 36.045 6.90169 2.60055
head 16.1557 1.91076 3.70488
rclavicle -4.46769e-014 7.95139e-016
rhumerus -32.0874 -14.7081 -78.8295
rradius 32.4721
rwrist 5.15843
rhand -16.209 10.4046
rfingers 7.12502
rthumb 9.99854 -19.3379
lclavicle -4.46769e-014 7.95139e-016
lhumerus -35.6947 18.3835 74.2909
lradius 26.5985
lwrist -7.74873
lhand -20.0717 21.2613
lfingers 7.12502
lthumb 6.2706 51.1485
rfemur -3.03796 -2.95974 15.981
rtibia 28.6553
rfoot -17.5578 -14.3372
rtoes 5.18603
lfemur -8.00804 -4.7432 -13.3416
ltibia 30.228
lfoot -9.89324 -1.15778
ltoes -14.1946
4635
root 14.9406 18.0289 -9.85872 627.686 -86.2301 449.615
lowerback 12.1977 3.24482 1.41413
upperback 1.96523 4.36882 -0.810453
thorax -4.58953 2.09815 -2.32888
lowerneck -21.9425 3.84677 -7.04869
upperneck 36.1829 7.08897 2.41939
head 16.2959 2.00844 3.6029
rclavicle -9.42239e-014 1.51076e-014
rhumerus -32.0787 -13.8433 -79.1734
rradius 32.8862
rwrist 4.5621
rhand -15.9441 10.4825
rfingers 7.12502
rthumb 10.2541 -19.2476
lclavicle -9.42239e-014 1.51076e-014
lhumerus -35.7915 18.7119 73.8438
lradius 26.635
lwrist -7.84322
lhand -19.517 21.0072
lfingers 7.12502
lthumb 6.80613 50.8778
rfemur -2.97558 -2.99923 15.785
rtibia 28.5019
rfoot -17.4023 -14.283
rtoes 4.78193
lfemur -7.77597 -5.01827 -12.9095
ltibia 29.876
lfoot -9.34194 -1.19311
ltoes -13.5219
4636
root 14.9381 18.0325 -9.81916 629.172 -86.1559 448.095
lowerback 12.2221 3.16754 1.36025
upperback 1.96175 4.25605 -0.871582
thorax -4.61104 2.04241 -2.34704
lowerneck -22.0784 3.95289 -6.91506
upperneck 36.3087 7.21162 2.41886
head 16.389 2.06696 3.61433
rclavicle 6.08281e-014 -2.74323e-014
rhumerus -32.0915 -13.3873 -79.2737
rradius 33.1377
rwrist 4.2809
rhand -15.8785 10.4781
rfingers 7.12502
rthumb 10.3173 -19.2489
lclavicle 6.08281e-014 -2.74323e-014
lhumerus -35.857 18.7048 73.6393
lradius 26.5987
lwrist -7.55741
lhand -19.7981 20.8736
lfingers 7.12502
lthumb 6.5347 50.7528
rfemur -2.85968 -3.12492 15.537
rtibia 28.3862
rfoot -17.332 -14.237
rtoes 4.6496
lfemur -7.52627 -5.26192 -12.5183
ltibia 29.4788
lfoot -8.79848 -1.3403
ltoes -13.1378
4637
root 14.942 18.0379 -9.77889 629.13 -86.069 448.069
lowerback 12.3893 3.23767 1.33511
upperback 1.91831 4.348 -0.863013
thorax -4.74713 2.0854 -2.35134
lowerneck -21.9811 3.87888 -7.27059
upperneck 36.3631 7.15218 2.63109
head 16.3672 2.02276 3.75311
rclavicle 4.42296e-015 -9.54166e-015
rhumerus -32.1605 -13.6529 -79.0418
rradius 33.2799
rwrist 4.38185
rhand -16.0855 10.4515
rfingers 7.12502
rthumb 10.1177 -19.2852
lclavicle 4.42296e-015 -9.54166e-015
lhumerus -35.9268 18.36 73.7935
lradius 26.576
lwrist -7.26355
lhand -20.5466 20.9893
lfingers 7.12502
lthumb 5.81215 50.8895
rfemur -2.74304 -3.00162 15.3116
rtibia 28.2867
rfoot -17.2959 -14.2776
rtoes 4.86888
lfemur -7.21213 -5.47311 -12.1441
ltibia 29.0337
lfoot -8.27091 -1.43294
ltoes -12.6477
4638
root 14.947 18.0417 -9.74043 628.438 -85.9392 448.71
lowerback 12.5453 3.26487 1.21783
upperback 1.88554 4.36737 -0.896679
thorax -4.87289 2.09383 -2.33606
lowerneck -21.8051 3.90817 -7.40008
upperneck 36.2781 7.20455 2.688
head 16.2678 2.04322 3.79704
rclavicle -6.69407e-014 -3.97569e-015
rhumerus -32.3903 -13.0677 -79.153
rradius 33.826
rwrist 3.57821
rhand -16.2994 10.2716
rfingers 7.12502
rthumb 9.91129 -19.475
lclavicle -6.69407e-014 -3.97569e-015
lhumerus -36.1007 18.5391 73.6491
lradius 26.6551
lwrist -7.3681
lhand -20.7152 20.739
lfingers 7.12502
lthumb 5.64934 50.6437
rfemur -2.65237 -2.65561 15.0943
rtibia 28.1748
rfoot -17.1618 -14.5587
rtoes 4.40539
lfemur -6.84014 -5.81853 -11.8124
ltibia 28.5567
lfoot -7.81127 -1.46897
ltoes -11.616
4639
root 14.9468 18.0465 -9.70062 627.619 -85.7809 449.518
lowerback 12.6042 3.27657 1.08425
upperback 1.83538 4.3609 -0.985294
thorax -4.96147 2.09059 -2.35926
lowerneck -21.6713 3.9906 -7.32271
upperneck 36.2221 7.28306 2.67891
head 16.2048 2.09046 3.78566
rclavicle 2.90723e-014 3.18055e-015
rhumerus -32.7059 -12.4012 -79.3007
rradius 34.4142
rwrist 2.75075
rhand -16.2606 10.1366
rfingers 7.12502
rthumb 9.94879 -19.6083
lclavicle 2.90723e-014 3.18055e-015
lhumerus -36.3332 18.9345 73.2757
lradius 26.7352
lwrist -7.69292
lhand -20.0711 20.3545
lfingers 7.12502
lthumb 6.27113 50.2416
rfemur -2.59392 -2.37478 14.8104
rtibia 28.0624
rfoot -17.076 -14.6883
rtoes 4.26979
lfemur -6.4623 -6.23982 -11.5718
ltibia 28.0443
lfoot -7.30311 -1.2449
ltoes -10.444
4640
root 14.9416 18.0574 -9.6527 626.547 -85.9207 450.609
lowerback 12.5502 3.31019 1.3286
upperback 1.797 4.44173 -0.963219
thorax -4.95153 2.1272 -2.48347
lowerneck -21.5539 3.98163 -7.40947
upperneck 36.2161 7.26743 2.73573
head 16.1669 2.08219 3.8162
rclavicle -9.28324e-014 1.35174e-014
rhumerus -32.5949 -13.0587 -78.9473
rradius 34.1915
rwrist 3.36026
rhand -16.1627 10.3808
rfingers 7.12502
rthumb 10.0432 -19.3596
lclavicle -9.28324e-014 1.35174e-014
lhumerus -36.4418 18.8985 73.2247
lradius 26.7837
lwrist -7.78219
lhand -19.9639 20.4578
lfingers 7.12502
lthumb 6.37466 50.3419
rfemur -2.57131 -2.36043 14.7947
rtibia 27.9504
rfoot -16.7602 -14.7179
rtoes 2.78545
lfemur -6.12345 -6.34561 -11.0787
ltibia 27.4706
lfoot -6.85762 -1.0717
ltoes -11.6673
4641
root 14.932 18.065 -9.60209 624.415 -86.0263 452.786
lowerback 12.3808 3.31639 1.47244
upperback 1.82705 4.47003 -0.930932
thorax -4.81657 2.14213 -2.52131
lowerneck -21.7193 3.99715 -7.39663
upperneck 36.3265 7.33308 2.6703
head 16.2631 2.09051 3.81024
rclavicle -7.30534e-015 -8.74653e-015
rhumerus -32.3107 -13.3527 -78.7717
rradius 33.9588
rwrist 3.61396
rhand -16.4257 10.4976
rfingers 7.12502
rthumb 9.78946 -19.2548
lclavicle -7.30534e-015 -8.74653e-015
lhumerus -36.4649 19.0099 73.188
lradius 26.8491
lwrist -7.65494
lhand -20.2828 20.8255
lfingers 7.12502
lthumb 6.06681 50.7186
rfemur -2.57906 -2.53699 14.7034
rtibia 27.8723
rfoot -16.3718 -14.6382
rtoes 0.506918
lfemur -5.71404 -6.542 -10.6032
ltibia 26.8213
lfoot -6.51328 -1.06781
ltoes -11.9412
4642
root 14.9176 18.0688 -9.55229 620.991 -85.8428 456.266
lowerback 12.1405 3.39294 1.31044
upperback 1.87324 4.54418 -0.996827
thorax -4.6391 2.18477 -2.4922
lowerneck -21.9076 4.02145 -7.31491
upperneck 36.4438 7.38432 2.6118
head 16.3722 2.10287 3.79462
rclavicle -2.82771e-014 1.31198e-014
rhumerus -32.3359 -13.0664 -78.7089
rradius 34.2044
rwrist 3.63224
rhand -16.2547 10.4729
rfingers 7.12502
rthumb 9.95444 -19.2718
lclavicle -2.82771e-014 1.31198e-014
lhumerus -36.4773 19.2412 73.0591
lradius 26.8952
lwrist -7.59016
lhand -20.0822 21.3278
lfingers 7.12502
lthumb 6.26042 51.2153
rfemur -2.58521 -2.48213 14.3032
rtibia 27.8007
rfoot -16.2751 -14.4438
rtoes 0.0380773
lfemur -5.21492 -7.06007 -10.4439
ltibia 26.1433
lfoot -6.01116 -0.896011
ltoes -9.62396
4643
root 14.9071 18.0691 -9.50399 619.291 -85.5321 458.005
lowerback 11.9652 3.48878 0.972286
upperback 1.89302 4.62531 -1.02437
thorax -4.5425 2.23188 -2.33152
lowerneck -21.8051 4.01124 -7.49477
upperneck 36.381 7.40344 2.67822
head 16.3013 2.10192 3.84916
rclavicle -4.87022e-014 1.51076e-014
rhumerus -32.4141 -13.0949 -78.295
rradius 34.3259
rwrist 4.55488
rhand -15.4176 10.5554
rfingers 7.12502
rthumb 10.762 -19.1489
lclavicle -4.87022e-014 1.51076e-014
lhumerus -36.4592 19.4091 73.0618
lradius 26.7775
lwrist -7.67512
lhand -20.1143 21.4878
lfingers 7.12502
lthumb 6.2295 51.3762
rfemur -2.57752 -2.28729 13.7968
rtibia 27.7257
rfoot -16.0818 -14.4362
rtoes -1.00824
lfemur -4.7742 -7.3924 -10.4544
ltibia 25.433
lfoot -5.31517 -0.865668
ltoes -7.9868
4644
root 14.9047 18.0612 -9.45505 619.519 -85.3406 457.769
lowerback 11.9328 3.51384 0.703271
upperback 1.90474 4.62299 -1.03467
thorax -4.53305 2.23468 -2.18935
lowerneck -21.6846 4.03078 -7.53468
upperneck 36.234 7.44914 2.63838
head 16.1957 2.12188 3.83442
rclavicle 6.01324e-015 -1.07344e-014
rhumerus -32.4333 -13.0561 -77.9932
rradius 34.3925
rwrist 4.97794
rhand -14.987 10.6255
rfingers 7.12502
rthumb 11.1773 -19.0568
lclavicle 6.01324e-015 -1.07344e-014
lhumerus -36.4318 19.5628 73.0193
lradius 26.6693
lwrist -7.76075
lhand -20.1898 21.3009
lfingers 7.12502
lthumb 6.15659 51.1915
rfemur -2.52465 -1.92869 13.4076
rtibia 27.6629
rfoot -16.1304 -14.4387
rtoes -0.335703
lfemur -4.4122 -7.52644 -10.3186
ltibia 24.7067
lfoot -4.61064 -1.25856
ltoes -7.39457
